<mxfile host="Electron" agent="Mozilla/5.0 (Windows NT 10.0; Win64; x64) AppleWebKit/537.36 (KHTML, like Gecko) draw.io/26.2.15 Chrome/134.0.6998.205 Electron/35.2.1 Safari/537.36" version="26.2.15">
  <diagram name="Page-1" id="vakWl6yCzBxkzi1hviDL">
    <mxGraphModel dx="2328" dy="894" grid="1" gridSize="10" guides="1" tooltips="1" connect="1" arrows="1" fold="1" page="1" pageScale="1" pageWidth="827" pageHeight="1169" math="0" shadow="0">
      <root>
        <mxCell id="0" />
        <mxCell id="1" parent="0" />
        <mxCell id="PKZGLUBQGHa-Z3QAXMMP-28" value="Flow Charts" style="swimlane;horizontal=0;whiteSpace=wrap;html=1;" vertex="1" parent="1">
          <mxGeometry x="-180" y="720" width="860" height="880" as="geometry" />
        </mxCell>
        <mxCell id="PKZGLUBQGHa-Z3QAXMMP-34" value="Main" style="swimlane;whiteSpace=wrap;html=1;" vertex="1" parent="PKZGLUBQGHa-Z3QAXMMP-28">
          <mxGeometry x="40" y="20" width="340" height="410" as="geometry" />
        </mxCell>
        <mxCell id="PKZGLUBQGHa-Z3QAXMMP-31" value="Start" style="strokeWidth=2;html=1;shape=mxgraph.flowchart.start_1;whiteSpace=wrap;" vertex="1" parent="PKZGLUBQGHa-Z3QAXMMP-34">
          <mxGeometry x="50" y="40" width="100" height="60" as="geometry" />
        </mxCell>
        <mxCell id="PKZGLUBQGHa-Z3QAXMMP-32" value="TUI - Main - startTwisted" style="rounded=1;whiteSpace=wrap;html=1;absoluteArcSize=1;arcSize=14;strokeWidth=2;" vertex="1" parent="PKZGLUBQGHa-Z3QAXMMP-34">
          <mxGeometry x="17.5" y="240" width="165" height="70" as="geometry" />
        </mxCell>
        <mxCell id="PKZGLUBQGHa-Z3QAXMMP-35" value="Stop" style="strokeWidth=2;html=1;shape=mxgraph.flowchart.start_1;whiteSpace=wrap;" vertex="1" parent="PKZGLUBQGHa-Z3QAXMMP-34">
          <mxGeometry x="50" y="330" width="100" height="60" as="geometry" />
        </mxCell>
        <mxCell id="PKZGLUBQGHa-Z3QAXMMP-36" style="edgeStyle=orthogonalEdgeStyle;rounded=0;orthogonalLoop=1;jettySize=auto;html=1;exitX=0.5;exitY=1;exitDx=0;exitDy=0;entryX=0.5;entryY=0;entryDx=0;entryDy=0;entryPerimeter=0;" edge="1" parent="PKZGLUBQGHa-Z3QAXMMP-34" source="PKZGLUBQGHa-Z3QAXMMP-32" target="PKZGLUBQGHa-Z3QAXMMP-35">
          <mxGeometry relative="1" as="geometry" />
        </mxCell>
        <mxCell id="PKZGLUBQGHa-Z3QAXMMP-45" style="edgeStyle=orthogonalEdgeStyle;rounded=0;orthogonalLoop=1;jettySize=auto;html=1;exitX=0.5;exitY=1;exitDx=0;exitDy=0;exitPerimeter=0;entryX=0.5;entryY=0;entryDx=0;entryDy=0;" edge="1" parent="PKZGLUBQGHa-Z3QAXMMP-34" source="PKZGLUBQGHa-Z3QAXMMP-43" target="PKZGLUBQGHa-Z3QAXMMP-32">
          <mxGeometry relative="1" as="geometry" />
        </mxCell>
        <mxCell id="PKZGLUBQGHa-Z3QAXMMP-43" value="Parse Arguments" style="strokeWidth=2;html=1;shape=mxgraph.flowchart.decision;whiteSpace=wrap;" vertex="1" parent="PKZGLUBQGHa-Z3QAXMMP-34">
          <mxGeometry x="30" y="120" width="140" height="100" as="geometry" />
        </mxCell>
        <mxCell id="PKZGLUBQGHa-Z3QAXMMP-44" style="edgeStyle=orthogonalEdgeStyle;rounded=0;orthogonalLoop=1;jettySize=auto;html=1;exitX=0.5;exitY=1;exitDx=0;exitDy=0;exitPerimeter=0;entryX=0.5;entryY=0;entryDx=0;entryDy=0;entryPerimeter=0;" edge="1" parent="PKZGLUBQGHa-Z3QAXMMP-34" source="PKZGLUBQGHa-Z3QAXMMP-31" target="PKZGLUBQGHa-Z3QAXMMP-43">
          <mxGeometry relative="1" as="geometry" />
        </mxCell>
        <mxCell id="PKZGLUBQGHa-Z3QAXMMP-74" style="edgeStyle=orthogonalEdgeStyle;rounded=0;orthogonalLoop=1;jettySize=auto;html=1;exitX=0.5;exitY=1;exitDx=0;exitDy=0;exitPerimeter=0;" edge="1" parent="PKZGLUBQGHa-Z3QAXMMP-34" source="PKZGLUBQGHa-Z3QAXMMP-72">
          <mxGeometry relative="1" as="geometry">
            <mxPoint x="100" y="320" as="targetPoint" />
            <Array as="points">
              <mxPoint x="250" y="320" />
            </Array>
          </mxGeometry>
        </mxCell>
        <mxCell id="PKZGLUBQGHa-Z3QAXMMP-72" value="Display help" style="strokeWidth=2;html=1;shape=mxgraph.flowchart.display;whiteSpace=wrap;" vertex="1" parent="PKZGLUBQGHa-Z3QAXMMP-34">
          <mxGeometry x="200" y="140" width="100" height="60" as="geometry" />
        </mxCell>
        <mxCell id="PKZGLUBQGHa-Z3QAXMMP-73" style="edgeStyle=orthogonalEdgeStyle;rounded=0;orthogonalLoop=1;jettySize=auto;html=1;exitX=1;exitY=0.5;exitDx=0;exitDy=0;exitPerimeter=0;entryX=0;entryY=0.5;entryDx=0;entryDy=0;entryPerimeter=0;" edge="1" parent="PKZGLUBQGHa-Z3QAXMMP-34" source="PKZGLUBQGHa-Z3QAXMMP-43" target="PKZGLUBQGHa-Z3QAXMMP-72">
          <mxGeometry relative="1" as="geometry" />
        </mxCell>
        <mxCell id="PKZGLUBQGHa-Z3QAXMMP-37" value="TUI - Main - startTwisted" style="swimlane;whiteSpace=wrap;html=1;" vertex="1" parent="PKZGLUBQGHa-Z3QAXMMP-28">
          <mxGeometry x="40" y="449" width="200" height="380" as="geometry" />
        </mxCell>
        <mxCell id="PKZGLUBQGHa-Z3QAXMMP-40" style="edgeStyle=orthogonalEdgeStyle;rounded=0;orthogonalLoop=1;jettySize=auto;html=1;exitX=0.5;exitY=1;exitDx=0;exitDy=0;exitPerimeter=0;entryX=0.5;entryY=0;entryDx=0;entryDy=0;" edge="1" parent="PKZGLUBQGHa-Z3QAXMMP-37" source="PKZGLUBQGHa-Z3QAXMMP-38" target="PKZGLUBQGHa-Z3QAXMMP-39">
          <mxGeometry relative="1" as="geometry" />
        </mxCell>
        <mxCell id="PKZGLUBQGHa-Z3QAXMMP-38" value="Start" style="strokeWidth=2;html=1;shape=mxgraph.flowchart.start_1;whiteSpace=wrap;" vertex="1" parent="PKZGLUBQGHa-Z3QAXMMP-37">
          <mxGeometry x="50" y="40" width="100" height="60" as="geometry" />
        </mxCell>
        <mxCell id="PKZGLUBQGHa-Z3QAXMMP-49" style="edgeStyle=orthogonalEdgeStyle;rounded=0;orthogonalLoop=1;jettySize=auto;html=1;exitX=0.5;exitY=1;exitDx=0;exitDy=0;entryX=0.5;entryY=0;entryDx=0;entryDy=0;" edge="1" parent="PKZGLUBQGHa-Z3QAXMMP-37" source="PKZGLUBQGHa-Z3QAXMMP-39" target="PKZGLUBQGHa-Z3QAXMMP-48">
          <mxGeometry relative="1" as="geometry" />
        </mxCell>
        <mxCell id="PKZGLUBQGHa-Z3QAXMMP-39" value="Initialise Factories" style="rounded=1;whiteSpace=wrap;html=1;absoluteArcSize=1;arcSize=14;strokeWidth=2;" vertex="1" parent="PKZGLUBQGHa-Z3QAXMMP-37">
          <mxGeometry x="30" y="120" width="140" height="70" as="geometry" />
        </mxCell>
        <mxCell id="PKZGLUBQGHa-Z3QAXMMP-53" style="edgeStyle=orthogonalEdgeStyle;rounded=0;orthogonalLoop=1;jettySize=auto;html=1;exitX=0.5;exitY=1;exitDx=0;exitDy=0;entryX=0.5;entryY=0;entryDx=0;entryDy=0;" edge="1" parent="PKZGLUBQGHa-Z3QAXMMP-37" source="PKZGLUBQGHa-Z3QAXMMP-48" target="PKZGLUBQGHa-Z3QAXMMP-52">
          <mxGeometry relative="1" as="geometry" />
        </mxCell>
        <mxCell id="PKZGLUBQGHa-Z3QAXMMP-48" value="startTUI" style="rounded=1;whiteSpace=wrap;html=1;absoluteArcSize=1;arcSize=14;strokeWidth=2;" vertex="1" parent="PKZGLUBQGHa-Z3QAXMMP-37">
          <mxGeometry x="30" y="210" width="140" height="70" as="geometry" />
        </mxCell>
        <mxCell id="PKZGLUBQGHa-Z3QAXMMP-52" value="reactor.start" style="shape=process;whiteSpace=wrap;html=1;backgroundOutline=1;rounded=1;" vertex="1" parent="PKZGLUBQGHa-Z3QAXMMP-37">
          <mxGeometry x="40" y="300" width="120" height="60" as="geometry" />
        </mxCell>
        <mxCell id="PKZGLUBQGHa-Z3QAXMMP-54" value="TUI - Main - startTUI" style="swimlane;whiteSpace=wrap;html=1;" vertex="1" parent="PKZGLUBQGHa-Z3QAXMMP-28">
          <mxGeometry x="260" y="449" width="500" height="410" as="geometry" />
        </mxCell>
        <mxCell id="PKZGLUBQGHa-Z3QAXMMP-55" value="Start" style="strokeWidth=2;html=1;shape=mxgraph.flowchart.start_1;whiteSpace=wrap;" vertex="1" parent="PKZGLUBQGHa-Z3QAXMMP-54">
          <mxGeometry x="200" y="40" width="100" height="60" as="geometry" />
        </mxCell>
        <mxCell id="PKZGLUBQGHa-Z3QAXMMP-65" style="edgeStyle=orthogonalEdgeStyle;rounded=0;orthogonalLoop=1;jettySize=auto;html=1;exitX=0;exitY=0.5;exitDx=0;exitDy=0;exitPerimeter=0;entryX=0.5;entryY=0;entryDx=0;entryDy=0;" edge="1" parent="PKZGLUBQGHa-Z3QAXMMP-54" source="PKZGLUBQGHa-Z3QAXMMP-60" target="PKZGLUBQGHa-Z3QAXMMP-61">
          <mxGeometry relative="1" as="geometry" />
        </mxCell>
        <mxCell id="PKZGLUBQGHa-Z3QAXMMP-66" style="edgeStyle=orthogonalEdgeStyle;rounded=0;orthogonalLoop=1;jettySize=auto;html=1;exitX=0.5;exitY=1;exitDx=0;exitDy=0;exitPerimeter=0;entryX=0.5;entryY=0;entryDx=0;entryDy=0;" edge="1" parent="PKZGLUBQGHa-Z3QAXMMP-54" source="PKZGLUBQGHa-Z3QAXMMP-60" target="PKZGLUBQGHa-Z3QAXMMP-62">
          <mxGeometry relative="1" as="geometry" />
        </mxCell>
        <mxCell id="PKZGLUBQGHa-Z3QAXMMP-67" style="edgeStyle=orthogonalEdgeStyle;rounded=0;orthogonalLoop=1;jettySize=auto;html=1;exitX=1;exitY=0.5;exitDx=0;exitDy=0;exitPerimeter=0;entryX=0.5;entryY=0;entryDx=0;entryDy=0;" edge="1" parent="PKZGLUBQGHa-Z3QAXMMP-54" source="PKZGLUBQGHa-Z3QAXMMP-60" target="PKZGLUBQGHa-Z3QAXMMP-63">
          <mxGeometry relative="1" as="geometry" />
        </mxCell>
        <mxCell id="PKZGLUBQGHa-Z3QAXMMP-60" value="Check State" style="strokeWidth=2;html=1;shape=mxgraph.flowchart.decision;whiteSpace=wrap;" vertex="1" parent="PKZGLUBQGHa-Z3QAXMMP-54">
          <mxGeometry x="180" y="120" width="140" height="100" as="geometry" />
        </mxCell>
        <mxCell id="PKZGLUBQGHa-Z3QAXMMP-68" style="edgeStyle=orthogonalEdgeStyle;rounded=0;orthogonalLoop=1;jettySize=auto;html=1;exitX=0.25;exitY=0;exitDx=0;exitDy=0;" edge="1" parent="PKZGLUBQGHa-Z3QAXMMP-54" source="PKZGLUBQGHa-Z3QAXMMP-61">
          <mxGeometry relative="1" as="geometry">
            <mxPoint x="250" y="110" as="targetPoint" />
            <Array as="points">
              <mxPoint x="55" y="110" />
              <mxPoint x="250" y="110" />
            </Array>
          </mxGeometry>
        </mxCell>
        <mxCell id="PKZGLUBQGHa-Z3QAXMMP-61" value="TUI - Display - promptUltrapeer" style="rounded=1;whiteSpace=wrap;html=1;absoluteArcSize=1;arcSize=14;strokeWidth=2;" vertex="1" parent="PKZGLUBQGHa-Z3QAXMMP-54">
          <mxGeometry x="20" y="240" width="140" height="70" as="geometry" />
        </mxCell>
        <mxCell id="PKZGLUBQGHa-Z3QAXMMP-62" value="TUI - Display - exit" style="rounded=1;whiteSpace=wrap;html=1;absoluteArcSize=1;arcSize=14;strokeWidth=2;" vertex="1" parent="PKZGLUBQGHa-Z3QAXMMP-54">
          <mxGeometry x="180" y="240" width="140" height="70" as="geometry" />
        </mxCell>
        <mxCell id="PKZGLUBQGHa-Z3QAXMMP-69" style="edgeStyle=orthogonalEdgeStyle;rounded=0;orthogonalLoop=1;jettySize=auto;html=1;exitX=0.75;exitY=0;exitDx=0;exitDy=0;" edge="1" parent="PKZGLUBQGHa-Z3QAXMMP-54" source="PKZGLUBQGHa-Z3QAXMMP-63">
          <mxGeometry relative="1" as="geometry">
            <mxPoint x="250" y="110" as="targetPoint" />
            <Array as="points">
              <mxPoint x="445" y="110" />
            </Array>
          </mxGeometry>
        </mxCell>
        <mxCell id="PKZGLUBQGHa-Z3QAXMMP-63" value="TUI - Display - promptCommunication" style="rounded=1;whiteSpace=wrap;html=1;absoluteArcSize=1;arcSize=14;strokeWidth=2;" vertex="1" parent="PKZGLUBQGHa-Z3QAXMMP-54">
          <mxGeometry x="340" y="240" width="140" height="70" as="geometry" />
        </mxCell>
        <mxCell id="PKZGLUBQGHa-Z3QAXMMP-64" style="edgeStyle=orthogonalEdgeStyle;rounded=0;orthogonalLoop=1;jettySize=auto;html=1;exitX=0.5;exitY=1;exitDx=0;exitDy=0;exitPerimeter=0;entryX=0.5;entryY=0;entryDx=0;entryDy=0;entryPerimeter=0;" edge="1" parent="PKZGLUBQGHa-Z3QAXMMP-54" source="PKZGLUBQGHa-Z3QAXMMP-55" target="PKZGLUBQGHa-Z3QAXMMP-60">
          <mxGeometry relative="1" as="geometry" />
        </mxCell>
        <mxCell id="PKZGLUBQGHa-Z3QAXMMP-70" value="Stop" style="strokeWidth=2;html=1;shape=mxgraph.flowchart.start_1;whiteSpace=wrap;" vertex="1" parent="PKZGLUBQGHa-Z3QAXMMP-54">
          <mxGeometry x="200" y="330" width="100" height="60" as="geometry" />
        </mxCell>
        <mxCell id="PKZGLUBQGHa-Z3QAXMMP-71" style="edgeStyle=orthogonalEdgeStyle;rounded=0;orthogonalLoop=1;jettySize=auto;html=1;exitX=0.5;exitY=1;exitDx=0;exitDy=0;entryX=0.5;entryY=0;entryDx=0;entryDy=0;entryPerimeter=0;" edge="1" parent="PKZGLUBQGHa-Z3QAXMMP-54" source="PKZGLUBQGHa-Z3QAXMMP-62" target="PKZGLUBQGHa-Z3QAXMMP-70">
          <mxGeometry relative="1" as="geometry" />
        </mxCell>
        <mxCell id="PKZGLUBQGHa-Z3QAXMMP-76" value="TUI - Display - promptUltrapeer" style="swimlane;whiteSpace=wrap;html=1;" vertex="1" parent="PKZGLUBQGHa-Z3QAXMMP-28">
          <mxGeometry x="400" y="20" width="200" height="200" as="geometry" />
        </mxCell>
        <mxCell id="PKZGLUBQGHa-Z3QAXMMP-78" value="TUI - Display - promptCommunication" style="swimlane;whiteSpace=wrap;html=1;" vertex="1" parent="PKZGLUBQGHa-Z3QAXMMP-28">
          <mxGeometry x="620" y="20" width="220" height="200" as="geometry" />
        </mxCell>
        <mxCell id="PKZGLUBQGHa-Z3QAXMMP-27" value="Entities" style="swimlane;horizontal=0;whiteSpace=wrap;html=1;" vertex="1" parent="1">
          <mxGeometry x="-180" y="340" width="1160" height="360" as="geometry" />
        </mxCell>
        <mxCell id="PKZGLUBQGHa-Z3QAXMMP-2" value="TUI" style="swimlane;whiteSpace=wrap;html=1;" vertex="1" parent="PKZGLUBQGHa-Z3QAXMMP-27">
          <mxGeometry x="770" y="20" width="370" height="320" as="geometry" />
        </mxCell>
        <mxCell id="PKZGLUBQGHa-Z3QAXMMP-20" value="User_Input" style="swimlane;childLayout=stackLayout;horizontal=1;startSize=50;horizontalStack=0;rounded=1;fontSize=14;fontStyle=0;strokeWidth=2;resizeParent=0;resizeLast=1;shadow=0;dashed=0;align=center;arcSize=4;whiteSpace=wrap;html=1;" vertex="1" parent="PKZGLUBQGHa-Z3QAXMMP-2">
          <mxGeometry x="20" y="40" width="160" height="90" as="geometry" />
        </mxCell>
        <mxCell id="PKZGLUBQGHa-Z3QAXMMP-21" value="&lt;div&gt;+Multiinput&lt;/div&gt;+Singleinput" style="align=left;strokeColor=none;fillColor=none;spacingLeft=4;spacingRight=4;fontSize=12;verticalAlign=top;resizable=0;rotatable=0;part=1;html=1;whiteSpace=wrap;" vertex="1" parent="PKZGLUBQGHa-Z3QAXMMP-20">
          <mxGeometry y="50" width="160" height="40" as="geometry" />
        </mxCell>
        <mxCell id="PKZGLUBQGHa-Z3QAXMMP-24" value="Display" style="swimlane;childLayout=stackLayout;horizontal=1;startSize=50;horizontalStack=0;rounded=1;fontSize=14;fontStyle=0;strokeWidth=2;resizeParent=0;resizeLast=1;shadow=0;dashed=0;align=center;arcSize=4;whiteSpace=wrap;html=1;" vertex="1" parent="PKZGLUBQGHa-Z3QAXMMP-2">
          <mxGeometry x="190" y="40" width="160" height="110" as="geometry" />
        </mxCell>
        <mxCell id="PKZGLUBQGHa-Z3QAXMMP-25" value="&lt;div&gt;&lt;span style=&quot;background-color: transparent; color: light-dark(rgb(0, 0, 0), rgb(255, 255, 255));&quot;&gt;+promptUltrapeer&lt;/span&gt;&lt;/div&gt;&lt;div&gt;+promptCommunication&lt;/div&gt;&lt;div&gt;+exit&lt;/div&gt;" style="align=left;strokeColor=none;fillColor=none;spacingLeft=4;spacingRight=4;fontSize=12;verticalAlign=top;resizable=0;rotatable=0;part=1;html=1;whiteSpace=wrap;" vertex="1" parent="PKZGLUBQGHa-Z3QAXMMP-24">
          <mxGeometry y="50" width="160" height="60" as="geometry" />
        </mxCell>
        <mxCell id="PKZGLUBQGHa-Z3QAXMMP-29" value="Main" style="swimlane;childLayout=stackLayout;horizontal=1;startSize=50;horizontalStack=0;rounded=1;fontSize=14;fontStyle=0;strokeWidth=2;resizeParent=0;resizeLast=1;shadow=0;dashed=0;align=center;arcSize=4;whiteSpace=wrap;html=1;" vertex="1" parent="PKZGLUBQGHa-Z3QAXMMP-2">
          <mxGeometry x="20" y="140" width="160" height="160" as="geometry" />
        </mxCell>
        <mxCell id="PKZGLUBQGHa-Z3QAXMMP-30" value="&lt;div&gt;=Ultrapeer_Factory&lt;/div&gt;&lt;div&gt;=Leaf_Factory&lt;/div&gt;&lt;div&gt;=Communication_Factory&lt;/div&gt;&lt;div&gt;=User_Input&lt;/div&gt;&lt;div&gt;=Display&lt;/div&gt;+startTwisted&lt;div&gt;+startTUI&lt;/div&gt;" style="align=left;strokeColor=none;fillColor=none;spacingLeft=4;spacingRight=4;fontSize=12;verticalAlign=top;resizable=0;rotatable=0;part=1;html=1;whiteSpace=wrap;" vertex="1" parent="PKZGLUBQGHa-Z3QAXMMP-29">
          <mxGeometry y="50" width="160" height="110" as="geometry" />
        </mxCell>
        <mxCell id="PKZGLUBQGHa-Z3QAXMMP-57" value="State" style="swimlane;childLayout=stackLayout;horizontal=1;startSize=50;horizontalStack=0;rounded=1;fontSize=14;fontStyle=0;strokeWidth=2;resizeParent=0;resizeLast=1;shadow=0;dashed=0;align=center;arcSize=4;whiteSpace=wrap;html=1;" vertex="1" parent="PKZGLUBQGHa-Z3QAXMMP-2">
          <mxGeometry x="190" y="160" width="160" height="140" as="geometry" />
        </mxCell>
        <mxCell id="PKZGLUBQGHa-Z3QAXMMP-58" value="!WIP" style="align=left;strokeColor=none;fillColor=none;spacingLeft=4;spacingRight=4;fontSize=12;verticalAlign=top;resizable=0;rotatable=0;part=1;html=1;whiteSpace=wrap;" vertex="1" parent="PKZGLUBQGHa-Z3QAXMMP-57">
          <mxGeometry y="50" width="160" height="90" as="geometry" />
        </mxCell>
        <mxCell id="PKZGLUBQGHa-Z3QAXMMP-1" value="Twisted Reactor" style="swimlane;whiteSpace=wrap;html=1;" vertex="1" parent="PKZGLUBQGHa-Z3QAXMMP-27">
          <mxGeometry x="40" y="20" width="710" height="320" as="geometry" />
        </mxCell>
        <mxCell id="PKZGLUBQGHa-Z3QAXMMP-3" value="Ultrapeer_Factory" style="swimlane;childLayout=stackLayout;horizontal=1;startSize=50;horizontalStack=0;rounded=1;fontSize=14;fontStyle=0;strokeWidth=2;resizeParent=0;resizeLast=1;shadow=0;dashed=0;align=center;arcSize=4;whiteSpace=wrap;html=1;" vertex="1" parent="PKZGLUBQGHa-Z3QAXMMP-1">
          <mxGeometry x="20" y="40" width="160" height="120" as="geometry" />
        </mxCell>
        <mxCell id="PKZGLUBQGHa-Z3QAXMMP-4" value="=Ultrapeer_Protocol&lt;br&gt;+buildProtocol&lt;br&gt;+clientConnectionLost&lt;div&gt;+clientConnectionFailed&lt;/div&gt;" style="align=left;strokeColor=none;fillColor=none;spacingLeft=4;spacingRight=4;fontSize=12;verticalAlign=top;resizable=0;rotatable=0;part=1;html=1;whiteSpace=wrap;" vertex="1" parent="PKZGLUBQGHa-Z3QAXMMP-3">
          <mxGeometry y="50" width="160" height="70" as="geometry" />
        </mxCell>
        <mxCell id="PKZGLUBQGHa-Z3QAXMMP-5" value="Ultrapeer_Protocol" style="swimlane;childLayout=stackLayout;horizontal=1;startSize=50;horizontalStack=0;rounded=1;fontSize=14;fontStyle=0;strokeWidth=2;resizeParent=0;resizeLast=1;shadow=0;dashed=0;align=center;arcSize=4;whiteSpace=wrap;html=1;" vertex="1" parent="PKZGLUBQGHa-Z3QAXMMP-1">
          <mxGeometry x="20" y="165" width="160" height="125" as="geometry" />
        </mxCell>
        <mxCell id="PKZGLUBQGHa-Z3QAXMMP-6" value="+connectionMade&lt;div&gt;+connectionLost&lt;br&gt;+dataRecieved&lt;br&gt;+dataSend&lt;/div&gt;" style="align=left;strokeColor=none;fillColor=none;spacingLeft=4;spacingRight=4;fontSize=12;verticalAlign=top;resizable=0;rotatable=0;part=1;html=1;whiteSpace=wrap;" vertex="1" parent="PKZGLUBQGHa-Z3QAXMMP-5">
          <mxGeometry y="50" width="160" height="75" as="geometry" />
        </mxCell>
        <mxCell id="PKZGLUBQGHa-Z3QAXMMP-12" value="Leaf_Factory" style="swimlane;childLayout=stackLayout;horizontal=1;startSize=50;horizontalStack=0;rounded=1;fontSize=14;fontStyle=0;strokeWidth=2;resizeParent=0;resizeLast=1;shadow=0;dashed=0;align=center;arcSize=4;whiteSpace=wrap;html=1;" vertex="1" parent="PKZGLUBQGHa-Z3QAXMMP-1">
          <mxGeometry x="190" y="40" width="160" height="120" as="geometry" />
        </mxCell>
        <mxCell id="PKZGLUBQGHa-Z3QAXMMP-13" value="=Leaf_Protocol&lt;br&gt;+buildProtocol&lt;br&gt;+clientConnectionLost&lt;div&gt;+clientConnectionFailed&lt;/div&gt;" style="align=left;strokeColor=none;fillColor=none;spacingLeft=4;spacingRight=4;fontSize=12;verticalAlign=top;resizable=0;rotatable=0;part=1;html=1;whiteSpace=wrap;" vertex="1" parent="PKZGLUBQGHa-Z3QAXMMP-12">
          <mxGeometry y="50" width="160" height="70" as="geometry" />
        </mxCell>
        <mxCell id="PKZGLUBQGHa-Z3QAXMMP-14" value="Leaf_Protocol" style="swimlane;childLayout=stackLayout;horizontal=1;startSize=50;horizontalStack=0;rounded=1;fontSize=14;fontStyle=0;strokeWidth=2;resizeParent=0;resizeLast=1;shadow=0;dashed=0;align=center;arcSize=4;whiteSpace=wrap;html=1;" vertex="1" parent="PKZGLUBQGHa-Z3QAXMMP-1">
          <mxGeometry x="190" y="165" width="160" height="125" as="geometry" />
        </mxCell>
        <mxCell id="PKZGLUBQGHa-Z3QAXMMP-15" value="+connectionMade&lt;div&gt;+connectionLost&lt;br&gt;+dataRecieved&lt;br&gt;+dataSend&lt;/div&gt;" style="align=left;strokeColor=none;fillColor=none;spacingLeft=4;spacingRight=4;fontSize=12;verticalAlign=top;resizable=0;rotatable=0;part=1;html=1;whiteSpace=wrap;" vertex="1" parent="PKZGLUBQGHa-Z3QAXMMP-14">
          <mxGeometry y="50" width="160" height="75" as="geometry" />
        </mxCell>
        <mxCell id="PKZGLUBQGHa-Z3QAXMMP-16" value="Communication_Factory" style="swimlane;childLayout=stackLayout;horizontal=1;startSize=50;horizontalStack=0;rounded=1;fontSize=14;fontStyle=0;strokeWidth=2;resizeParent=0;resizeLast=1;shadow=0;dashed=0;align=center;arcSize=4;whiteSpace=wrap;html=1;" vertex="1" parent="PKZGLUBQGHa-Z3QAXMMP-1">
          <mxGeometry x="360" y="40" width="160" height="120" as="geometry" />
        </mxCell>
        <mxCell id="PKZGLUBQGHa-Z3QAXMMP-17" value="=Communication_Protocol&lt;br&gt;+buildProtocol&lt;br&gt;+clientConnectionLost&lt;div&gt;+clientConnectionFailed&lt;/div&gt;" style="align=left;strokeColor=none;fillColor=none;spacingLeft=4;spacingRight=4;fontSize=12;verticalAlign=top;resizable=0;rotatable=0;part=1;html=1;whiteSpace=wrap;" vertex="1" parent="PKZGLUBQGHa-Z3QAXMMP-16">
          <mxGeometry y="50" width="160" height="70" as="geometry" />
        </mxCell>
        <mxCell id="PKZGLUBQGHa-Z3QAXMMP-18" value="Communication_Protocol" style="swimlane;childLayout=stackLayout;horizontal=1;startSize=50;horizontalStack=0;rounded=1;fontSize=14;fontStyle=0;strokeWidth=2;resizeParent=0;resizeLast=1;shadow=0;dashed=0;align=center;arcSize=4;whiteSpace=wrap;html=1;" vertex="1" parent="PKZGLUBQGHa-Z3QAXMMP-1">
          <mxGeometry x="360" y="165" width="160" height="125" as="geometry" />
        </mxCell>
        <mxCell id="PKZGLUBQGHa-Z3QAXMMP-19" value="+connectionMade&lt;div&gt;+connectionLost&lt;br&gt;+dataRecieved&lt;br&gt;+dataSend&lt;/div&gt;" style="align=left;strokeColor=none;fillColor=none;spacingLeft=4;spacingRight=4;fontSize=12;verticalAlign=top;resizable=0;rotatable=0;part=1;html=1;whiteSpace=wrap;" vertex="1" parent="PKZGLUBQGHa-Z3QAXMMP-18">
          <mxGeometry y="50" width="160" height="75" as="geometry" />
        </mxCell>
        <mxCell id="PKZGLUBQGHa-Z3QAXMMP-41" value="SSL_Context_Factory" style="swimlane;childLayout=stackLayout;horizontal=1;startSize=50;horizontalStack=0;rounded=1;fontSize=14;fontStyle=0;strokeWidth=2;resizeParent=0;resizeLast=1;shadow=0;dashed=0;align=center;arcSize=4;whiteSpace=wrap;html=1;" vertex="1" parent="PKZGLUBQGHa-Z3QAXMMP-1">
          <mxGeometry x="530" y="40" width="160" height="110" as="geometry" />
        </mxCell>
        <mxCell id="PKZGLUBQGHa-Z3QAXMMP-42" value="=Private_Key&lt;div&gt;=Certificate&lt;/div&gt;&lt;div&gt;+getContext&lt;/div&gt;" style="align=left;strokeColor=none;fillColor=none;spacingLeft=4;spacingRight=4;fontSize=12;verticalAlign=top;resizable=0;rotatable=0;part=1;html=1;whiteSpace=wrap;" vertex="1" parent="PKZGLUBQGHa-Z3QAXMMP-41">
          <mxGeometry y="50" width="160" height="60" as="geometry" />
        </mxCell>
        <mxCell id="PKZGLUBQGHa-Z3QAXMMP-46" value="Events will be logged for debugging" style="shape=note;whiteSpace=wrap;html=1;backgroundOutline=1;darkOpacity=0.05;" vertex="1" parent="1">
          <mxGeometry x="-360" y="720" width="160" height="100" as="geometry" />
        </mxCell>
      </root>
    </mxGraphModel>
  </diagram>
</mxfile>
